<svg xmlns="http://www.w3.org/2000/svg" width="122" height="72.474" viewBox="0 0 122 72.474">
  <g id="Grupo_5114" data-name="Grupo 5114" transform="translate(-5659.473 -13800)">
    <rect id="Rectángulo_1745" data-name="Rectángulo 1745" width="36" height="36" transform="translate(5674 13813)" fill="#ecebed"/>
    <g id="Grupo_5111" data-name="Grupo 5111" transform="translate(604.473)">
      <g id="Grupo_5106" data-name="Grupo 5106">
        <rect id="Rectángulo_1746" data-name="Rectángulo 1746" width="122" height="60" rx="17" transform="translate(5055 13800)" fill="#f3f3f3"/>
        <path id="Trazado_39983" data-name="Trazado 39983" d="M5078.75,13857.6s2.5,9.437-1.421,14.87c8.167-.868,16.215-13.6,16.215-13.6" fill="#f3f3f3"/>
      </g>
      <rect id="Rectángulo_1750" data-name="Rectángulo 1750" width="30" height="6.986" rx="3" transform="translate(5070 13844.014)" fill="#ccc"/>
      <rect id="Rectángulo_1752" data-name="Rectángulo 1752" width="30" height="6.986" rx="3" transform="translate(5104.584 13844.014)" fill="#ccc"/>
      <g id="Grupo_5113" data-name="Grupo 5113" transform="translate(5139.168 13844.014)">
        <g id="Grupo_5109" data-name="Grupo 5109">
          <rect id="Rectángulo_1754" data-name="Rectángulo 1754" width="30" height="6.986" rx="3" fill="#ccc"/>
        </g>
      </g>
      <path id="Icon_awesome-mouse-pointer" data-name="Icon awesome-mouse-pointer" d="M9.51,10.358H6.172l1.757,4.28a.585.585,0,0,1-.3.755l-1.547.674a.557.557,0,0,1-.734-.306L3.68,11.7.953,14.5A.557.557,0,0,1,0,14.1V.576a.557.557,0,0,1,.953-.4L9.9,9.378A.577.577,0,0,1,9.51,10.358Z" transform="translate(5151 13847.507)"/>
    </g>
    <g id="Grupo_5112" data-name="Grupo 5112" transform="translate(604.473)">
      <rect id="Rectángulo_1747" data-name="Rectángulo 1747" width="79" height="6" transform="translate(5070 13810)" fill="#ddd"/>
      <rect id="Rectángulo_1748" data-name="Rectángulo 1748" width="65" height="5" transform="translate(5070 13822)" fill="#ddd"/>
      <rect id="Rectángulo_1756" data-name="Rectángulo 1756" width="65" height="5" transform="translate(5070 13832)" fill="#ddd"/>
    </g>
  </g>
</svg>
