<svg id="Group_5071" data-name="Group 5071" xmlns="http://www.w3.org/2000/svg" xmlns:xlink="http://www.w3.org/1999/xlink" width="590.843" height="338.099" viewBox="0 0 590.843 338.099">
  <defs>
    <linearGradient id="linear-gradient" x1="0.5" x2="0.5" y2="1" gradientUnits="objectBoundingBox">
      <stop offset="0" stop-color="#777"/>
      <stop offset="1" stop-color="#111"/>
    </linearGradient>
  </defs>
  <g id="Group_4958" data-name="Group 4958" transform="translate(0)">
    <g id="Group_4782" data-name="Group 4782" transform="translate(0 0)">
      <g id="Path_39647" data-name="Path 39647" fill="url(#linear-gradient)">
        <path d="M 241.9877471923828 323.2403259277344 L 81.75262451171875 323.2403259277344 C 76.23941040039062 323.2403259277344 70.72978973388672 322.6849060058594 65.3768310546875 321.5895385742188 C 60.16020584106445 320.5220947265625 55.02891159057617 318.9292602539062 50.12557983398438 316.8552856445312 C 45.31112289428711 314.8189697265625 40.66757965087891 312.2984924316406 36.32382965087891 309.3639526367188 C 32.02128982543945 306.4572143554688 27.97528839111328 303.1189575195312 24.29833030700684 299.4419860839844 C 20.62137222290039 295.7650451660156 17.28312110900879 291.7190856933594 14.37637138366699 287.41650390625 C 11.44182968139648 283.0727844238281 8.921371459960938 278.42919921875 6.885037899017334 273.61474609375 C 4.811079502105713 268.71142578125 3.218246221542358 263.5801696777344 2.150788068771362 258.3634948730469 C 1.055413007736206 253.0105743408203 0.4999963045120239 247.5009613037109 0.4999963045120239 241.9877471923828 L 0.4999963045120239 81.75262451171875 C 0.4999963045120239 76.23941040039062 1.055413007736206 70.72978973388672 2.150788068771362 65.3768310546875 C 3.218246221542358 60.16020584106445 4.811079502105713 55.02891159057617 6.885037899017334 50.12557983398438 C 8.921371459960938 45.31112289428711 11.44182968139648 40.66757965087891 14.37637138366699 36.32382965087891 C 17.28312110900879 32.02128982543945 20.62137222290039 27.97528839111328 24.29833030700684 24.29833030700684 C 27.97528839111328 20.62137222290039 32.02128982543945 17.28312110900879 36.32382965087891 14.37637138366699 C 40.66757965087891 11.44182968139648 45.31112289428711 8.921371459960938 50.12557983398438 6.885037899017334 C 55.02891159057617 4.811079502105713 60.16020584106445 3.218246221542358 65.3768310546875 2.150788068771362 C 70.72978973388672 1.055413007736206 76.23941040039062 0.4999963045120239 81.75262451171875 0.4999963045120239 L 241.9877471923828 0.4999963045120239 C 247.5009613037109 0.4999963045120239 253.0105743408203 1.055413007736206 258.3634948730469 2.150788068771362 C 263.5801696777344 3.218246221542358 268.71142578125 4.811079502105713 273.61474609375 6.885037899017334 C 278.42919921875 8.921371459960938 283.0727844238281 11.44182968139648 287.41650390625 14.37637138366699 C 291.7190856933594 17.28312110900879 295.7650451660156 20.62137222290039 299.4419860839844 24.29833030700684 C 303.1189575195312 27.97528839111328 306.4572143554688 32.02128982543945 309.3639526367188 36.32382965087891 C 312.2984924316406 40.66757965087891 314.8189697265625 45.31112289428711 316.8552856445312 50.12557983398438 C 318.9292602539062 55.02891159057617 320.5220947265625 60.16020584106445 321.5895385742188 65.3768310546875 C 322.6849060058594 70.72978973388672 323.2403259277344 76.23941040039062 323.2403259277344 81.75262451171875 L 323.2403259277344 241.9877471923828 C 323.2403259277344 247.5009613037109 322.6849060058594 253.0105743408203 321.5895385742188 258.3634948730469 C 320.5220947265625 263.5801696777344 318.9292602539062 268.71142578125 316.8552856445312 273.61474609375 C 314.8189697265625 278.42919921875 312.2984924316406 283.0727844238281 309.3639526367188 287.41650390625 C 306.4572143554688 291.7190856933594 303.1189575195312 295.7650451660156 299.4419860839844 299.4419860839844 C 295.7650451660156 303.1189575195312 291.7190856933594 306.4572143554688 287.41650390625 309.3639526367188 C 283.0727844238281 312.2984924316406 278.42919921875 314.8189697265625 273.61474609375 316.8552856445312 C 268.71142578125 318.9292602539062 263.5801696777344 320.5220947265625 258.3634948730469 321.5895385742188 C 253.0105743408203 322.6849060058594 247.5009613037109 323.2403259277344 241.9877471923828 323.2403259277344 Z" stroke="none"/>
        <path d="M 81.75262451171875 1 C 76.27299499511719 1 70.797119140625 1.552001953125 65.47708129882812 2.640625 C 60.29278564453125 3.701507568359375 55.19332885742188 5.284454345703125 50.32037353515625 7.345550537109375 C 45.53567504882812 9.369293212890625 40.92074584960938 11.87420654296875 36.603759765625 14.79071044921875 C 32.32757568359375 17.67962646484375 28.30636596679688 20.99740600585938 24.65191650390625 24.65191650390625 C 20.99740600585938 28.30636596679688 17.67962646484375 32.32757568359375 14.79071044921875 36.603759765625 C 11.87420654296875 40.92074584960938 9.369293212890625 45.53567504882812 7.345550537109375 50.32037353515625 C 5.284454345703125 55.19332885742188 3.701507568359375 60.29278564453125 2.640625 65.47708129882812 C 1.552001953125 70.797119140625 1 76.27299499511719 1 81.75262451171875 L 1 241.9877471923828 C 1 247.4673767089844 1.552001953125 252.9432373046875 2.640625 258.2633056640625 C 3.701507568359375 263.4475708007812 5.284454345703125 268.5470275878906 7.345550537109375 273.4199829101562 C 9.369293212890625 278.2047119140625 11.87420654296875 282.8196105957031 14.79071044921875 287.1365966796875 C 17.67962646484375 291.4127807617188 20.99740600585938 295.4339904785156 24.65191650390625 299.0884399414062 C 28.30636596679688 302.742919921875 32.32757568359375 306.0606994628906 36.603759765625 308.9496765136719 C 40.92074584960938 311.8661193847656 45.53567504882812 314.3710327148438 50.32037353515625 316.394775390625 C 55.19332885742188 318.4558715820312 60.29278564453125 320.038818359375 65.47708129882812 321.0997009277344 C 70.797119140625 322.1883239746094 76.27299499511719 322.7403259277344 81.75262451171875 322.7403259277344 L 241.9877471923828 322.7403259277344 C 247.4673767089844 322.7403259277344 252.9432373046875 322.1883239746094 258.2633056640625 321.0997009277344 C 263.4475708007812 320.038818359375 268.5470275878906 318.4558715820312 273.4199829101562 316.394775390625 C 278.2047119140625 314.3710327148438 282.8196105957031 311.8661193847656 287.1365966796875 308.9496765136719 C 291.4127807617188 306.0606994628906 295.4339904785156 302.742919921875 299.0884399414062 299.0884399414062 C 302.742919921875 295.4339904785156 306.0606994628906 291.4127807617188 308.9496765136719 287.1365966796875 C 311.8661193847656 282.8196105957031 314.3710327148438 278.2047119140625 316.394775390625 273.4199829101562 C 318.4558715820312 268.5470275878906 320.038818359375 263.4475708007812 321.0997009277344 258.2633056640625 C 322.1883239746094 252.9432373046875 322.7403259277344 247.4673767089844 322.7403259277344 241.9877471923828 L 322.7403259277344 81.75262451171875 C 322.7403259277344 76.27299499511719 322.1883239746094 70.797119140625 321.0997009277344 65.47708129882812 C 320.038818359375 60.29278564453125 318.4558715820312 55.19332885742188 316.394775390625 50.32037353515625 C 314.3710327148438 45.53567504882812 311.8661193847656 40.92074584960938 308.9496765136719 36.603759765625 C 306.0606994628906 32.32757568359375 302.742919921875 28.30636596679688 299.0884399414062 24.65191650390625 C 295.4339904785156 20.99740600585938 291.4127807617188 17.67962646484375 287.1365966796875 14.79071044921875 C 282.8196105957031 11.87420654296875 278.2047119140625 9.369293212890625 273.4199829101562 7.345550537109375 C 268.5470275878906 5.284454345703125 263.4475708007812 3.701507568359375 258.2633056640625 2.640625 C 252.9432373046875 1.552001953125 247.4673767089844 1 241.9877471923828 1 L 81.75262451171875 1 M 81.75262451171875 0 L 241.9877471923828 0 C 287.1384582519531 0 323.7403259277344 36.60189819335938 323.7403259277344 81.75262451171875 L 323.7403259277344 241.9877471923828 C 323.7403259277344 287.1384582519531 287.1384582519531 323.7403259277344 241.9877471923828 323.7403259277344 L 81.75262451171875 323.7403259277344 C 36.60189819335938 323.7403259277344 0 287.1384582519531 0 241.9877471923828 L 0 81.75262451171875 C 0 36.60189819335938 36.60189819335938 0 81.75262451171875 0 Z" stroke="none" fill="#707070"/>
      </g>
      <path id="Path_39652" data-name="Path 39652" d="M75.716-16.78h-22.3V56.528q0,6.333-2.822,9.4a9.468,9.468,0,0,1-7.3,3.063,9.6,9.6,0,0,1-7.4-3.1q-2.857-3.1-2.857-9.361V-16.78h-22.3q-5.231,0-7.778-2.306A7.823,7.823,0,0,1,.413-25.177a7.733,7.733,0,0,1,2.65-6.195q2.65-2.271,7.675-2.271H75.716q5.3,0,7.881,2.34a7.879,7.879,0,0,1,2.581,6.126,7.726,7.726,0,0,1-2.616,6.092Q80.948-16.779,75.716-16.78Z" transform="translate(118.944 144.199)" fill="#fff"/>
      <text id="_4" data-name="4" transform="translate(243.538 272.813)" fill="#fff" font-size="66" font-family="ArialRoundedMTBold, Arial Rounded MT Bold"><tspan x="0" y="0">4</tspan></text>
    </g>
    <text id="Bot" transform="translate(359.843 295.099)" font-size="159" font-family="Roboto-Medium, Roboto" font-weight="500" letter-spacing="-0.04em"><tspan x="0" y="0">Bot</tspan></text>
  </g>
</svg>
