<svg xmlns="http://www.w3.org/2000/svg" width="123.334" height="114.209" viewBox="0 0 123.334 114.209">
  <path id="A1" d="M118.983,235.592c-11.584,11.672-47.153,3.937-62.965,6.626C52.094,243.38,43.55,256.337,40.306,260.2c-1.537,1.831-6.1,8.5-7.995,8.094-5.794-1.242,1.03-24.783-.744-26.368-.287-.256-5.652-.015-7.686-.372-9.706-1.7-18.111-8.124-19.813-18.281-1.6-9.539-1.383-36.527-.357-46.551C5,164.1,14.215,156.67,26.438,155.5c18.675-1.79,59.093-1.922,77.654-.018,10.783,1.106,20,8.678,21.273,19.749,1.1,9.555,1.273,39.11-.125,48.306-.429,2.82-4.3,10.078-6.257,12.055" transform="translate(-2.905 -154.105)"/>
</svg>
