<svg xmlns="http://www.w3.org/2000/svg" width="156.526" height="125.672" viewBox="0 0 156.526 125.672">
  <path id="A3" d="M296.1,226.141c-1.723-1.4-13.152,1-19.711-8.858-5.154-7.744-4.679-34.678-3.724-44.611,1.285-13.364,7.86-19.96,21.243-21.243,15.578-1.494,49-1.623,64.468-.018,8.717.9,17.058,5.539,19.138,14.558.828,3.586-.155,11.214,2,12.649,7.731,5.148,41.487-7.592,47.449,14.089,2.083,7.579,1.825,32.867,1.062,41.562a18.444,18.444,0,0,1-2.195,8.061c-6.058,12.6-18.911,8.932-20.679,11.543-2.535,3.743,3.929,22.213-1.371,22.054-3.2-.1-14.977-20.826-21.164-22.763-18.1-5.668-53.962,10.825-58.564-17.616-.992-6.133,2.833-10.992-5.207-9.378-5.334,1.069-13.982,16.33-18.291,20.968-1.5,1.612-2.507.944-4.455.977Zm77.648-46.882c1.412-10.882-1.28-20.4-12.8-23.1-21.621.769-45.779-2.2-67.108-.4-6.319.535-12.059,2.373-14.99,8.45-2.751,5.706-2.6,34.6-1.8,42.161a19.6,19.6,0,0,0,2.321,7.935c6.014,10.419,19.661,5.725,21.957,8.868l-.823,14.683c3.459.965,2.47-.93,3.318-1.88,2.707-3.03,8.518-12.223,11.341-13.479,2.866-1.272,8.776-.311,8.776-.752V196.107c0-2.817,5.4-10.589,8.046-12.465,1.831-1.3,8.635-4.383,10.267-4.383Z" transform="translate(-272.055 -150.257)"/>
</svg>
