<svg xmlns="http://www.w3.org/2000/svg" width="138.199" height="135.949" viewBox="0 0 138.199 135.949">
  <g id="B5" transform="translate(5 5)">
    <path id="Path_39806" data-name="Path 39806" d="M124.209,103.884a8.933,8.933,0,0,1,1.217-4.5,12.415,12.415,0,0,1,.774-1.143,59.742,59.742,0,0,0,10.176-33.294C136.486,30.954,107.8,3.375,72.332,3.375c-30.934,0-56.744,21.053-62.79,49a59.251,59.251,0,0,0-1.364,12.61,62.544,62.544,0,0,0,63.048,62.348c5.641,0,13.236-1.7,17.4-2.839s8.3-2.655,9.365-3.06a9.748,9.748,0,0,1,3.429-.627,9.586,9.586,0,0,1,3.724.737l20.906,7.411a4.985,4.985,0,0,0,1.438.369,2.935,2.935,0,0,0,2.95-2.95,4.737,4.737,0,0,0-.184-1Z" transform="translate(-8.177 -3.375)" fill="none" stroke="#000" stroke-width="10"/>
  </g>
</svg>
