<svg xmlns="http://www.w3.org/2000/svg" width="128.639" height="117.92" viewBox="0 0 128.639 117.92">
  <path id="D2" d="M63.873,4.89c36.468-3.322,76.279,19.412,72.191,60.191C133.54,90.268,105,109.235,81.446,111.462c-6.392.6-13.414-.6-19.633.369-7.268,1.133-28.1,11.485-33,10.606-9.274-1.665-4.194-10.275-3.73-15.339.258-2.837.477-11.48-.213-13.8-.484-1.628-8.12-8.423-10.213-11.788C-7.5,45.864,27.316,8.221,63.873,4.89M29.08,116.586c1.159,1.21,27.675-9.888,31.729-10.757,33.623,5.943,78.927-19.285,68.545-58.018C119.106,9.58,61.571.006,32.6,22.615,14.8,36.5,6.778,63.363,22.1,82.067c2.211,2.7,6.9,5.415,7.981,8.019,3.187,7.685-1.923,25.536-1,26.5" transform="translate(-7.715 -4.57)"/>
</svg>
