<svg xmlns="http://www.w3.org/2000/svg" width="129.09" height="118.893" viewBox="0 0 129.09 118.893">
  <path id="D4" d="M20.91,117.873c-10.846-.673-3.708-15.61-3.529-21.532.045-1.516-.751-8.292-1.277-9.2-.239-.415-5.565-4.339-7.172-6.323-13.6-16.771-10.78-42.122,2.446-58.387,26.6-32.716,89.1-29.237,110.139,7.8,21.061,37.086-12.1,73.613-49.685,76.653a71.212,71.212,0,0,1-8.283,0,55.409,55.409,0,0,0-10.462.252c-7.875,1.23-25.225,10.746-31.8,10.746Q21.091,117.884,20.91,117.873ZM35.991,11.041C9.241,22.614-5.653,55.406,15.3,79.445c2.588,2.968,5.45,2.58,6.611,7.388.9,3.714.773,11.6.425,15.557-.166,1.883-2.507,8.977-1.985,9.5,1.179,1.189,27.788-9.654,31.726-10.759,33.87,5.74,79.109-18.937,68.791-58.257-6.481-24.7-33.025-37-58.247-36.994A67.732,67.732,0,0,0,35.991,11.041ZM88.1,64.676c-9.97-1.94-10.535-16.647-2.041-18.593,9.132-2.09,13,3.54,12.776,9.17-.192,4.808-3.368,9.617-8.8,9.616A10.142,10.142,0,0,1,88.1,64.676ZM86.6,52.125c-3.4,3.329,2.129,9.923,5.837,5.328A3.953,3.953,0,0,0,86.6,52.125ZM36.054,46.083C50.918,42.657,52.736,62.347,40.6,64.676a9.188,9.188,0,0,1-1.734.169C29.181,64.844,25.439,48.53,36.054,46.083Zm.205,11.371c3.709,4.595,9.235-2,5.838-5.328a3.953,3.953,0,0,0-5.838,5.328Zm24.8-11.369c15.272-3.479,16.978,16.546,4.535,18.608a9.969,9.969,0,0,1-1.633.138C53.872,64.831,50.856,48.409,61.06,46.084ZM64.008,51.1c-5.5.47-4.47,8.285.787,7.815,4.9-.438,4.67-7.835-.332-7.834C64.316,51.076,64.164,51.082,64.008,51.1Z" transform="translate(0.51 0.509)" stroke="rgba(0,0,0,0)" stroke-miterlimit="10" stroke-width="1"/>
</svg>
