<svg xmlns="http://www.w3.org/2000/svg" width="149.047" height="128.432" viewBox="0 0 149.047 128.432">
  <path id="D5" d="M11.962,105.235c-.417-1.406-5.783-6.443-7.207-8.793-8.552-14.1-5.061-32.96,6.418-44.4,3.77-3.758,11.3-6.522,13.722-8.764.9-.83,6.1-16.238,10.758-21.757C74.065-23.977,165.64,8.144,144.943,66.811c-2.868,8.13-12.659,15.286-13.549,20.465-.571,3.317.423,9.078.865,12.663.585,4.753,5.168,14.579-5.323,13.412-7.448-.828-20.648-8.73-28.711-10.38-13.092-2.679-13.238,3.976-22.759,9.362-13.463,7.613-20.629,5.5-34.44,6.752-6.565.595-16.871,6.422-23.6,8.272C5.983,126.459,14.3,113.129,11.962,105.235ZM8.984,92.213c2.266,4.359,7.566,7.556,8.531,10.47,1.721,5.194-.964,17.2-.344,17.843,1.2,1.259,17.7-6.246,20.73-6.759,9.509-1.607,16.522.658,27.047-2.953,43.693-14.99,27.77-66.518-17.271-67.353-.241,0-.479-.007-.72-.007C22.32,43.456-4.289,66.7,8.984,92.213Zm87.074-8.29c-.308,2.651-4.388,12.173-3.888,12.6.229.2,4.313.012,6.044.457,4.147,1.067,28.8,11.643,29.948,10.542,1.011-.976-5.491-21.766-.7-27.708,1.437-1.782,5.67-4.067,7.7-6.787a34.834,34.834,0,0,0,5.99-15.01c5.248-51.668-63.453-67.41-97-37C41.531,23.4,30.038,37.67,32.175,40.532c.262.35,6.532-1.825,8.507-1.983q2.536-.2,5.1-.2C72.034,38.349,99.515,54.18,96.058,83.923ZM26.9,71.6c11.009-1.05,12.289,15.705,1.671,16.785a9.813,9.813,0,0,1-.993.051C17.689,88.432,16.641,72.575,26.9,71.6Zm20.99-.016c7.965-1.049,13.725,10.986,4.646,15.671a9.235,9.235,0,0,1-4.228,1.142C39.82,88.39,37.712,72.923,47.893,71.58ZM63.7,85.349c-6.575-7.863,4.485-18.154,12.178-11.665,6.254,5.275.224,14.653-6.352,14.653A7.5,7.5,0,0,1,63.7,85.349Z" transform="translate(0.532 0.57)" stroke="rgba(0,0,0,0)" stroke-miterlimit="10" stroke-width="1"/>
</svg>
