<svg xmlns="http://www.w3.org/2000/svg" width="151.499" height="133.937" viewBox="0 0 151.499 133.937">
  <path id="H6" d="M12.8,116.014c-.348-.351-1.42-.194-2.793-.038-3.232.367-8.131.735-9.154-5.515C2.579,91.839-1.631,68.5.749,50.468,1.062,48.1,4.278,44.017,6.3,44.017H25.8V9.517c0-2.9,3.992-8.819,7.448-8.552C50,2.153,67.7,1.48,85.379.808,104.463.083,123.526-.644,141.347.97c5.152.467,7.847,2.178,8.474,7.525,2.779,23.671-2.071,52.713-.081,76.964-1.436,7.037-7.5,6.83-13.341,6.622-1.225-.043-2.441-.086-3.6-.063v17.5c0,1.155-3.85,5.136-5.259,5.741-5.906,2.538-10.48-3.117-14.642-6.837-6.393-5.715-13.087-17.3-22.1-16.4v19.5c0,.544-1.888,2.947-2.6,3.4-3.433,2.155-15.3,1.66-26.74,1.165-9.063-.392-17.853-.785-21.951.143C33.845,119.6,25.7,132.9,19.3,133.055l-.221,0C9.339,133.057,14.092,117.31,12.8,116.014Zm-7-64.5v58.5c0,.676,13-.022,13,2.5v14.5c1.745.436,2-.722,3.008-1.493,3.3-2.532,12.145-13.543,14.7-14.3,7.034-.857,14.8-.466,22.523-.076,7.747.392,15.448.783,22.317-.084,1.4-.176,2.594-.236,3.551-1.449l-.1-59.6H7.3A10.1,10.1,0,0,0,5.8,51.517Zm26-43v35.5H85.3c.7,0,5.5,4.047,5.5,4.5v38.5l8.982.518c3.436,2.533,22.64,22.509,24.515,22.524,1.746.016,2.232-1.065,2.5-2.548.724-4.034-1.1-17.352.441-19.559.817-1.174,4.525-1.067,8.227-.961,4.172.12,8.337.239,8.337-1.475v-78a10.056,10.056,0,0,0-1.5-1.5H34.3A16.667,16.667,0,0,0,31.8,8.518Zm-11.5,86.5c-4.075,0-3.743-6-1-6h48c4.9.778,1.229,6,0,6Zm-1-12c-3.794-1.061-2.9-5.163,2.063-5.936,9.253-1.445,31.9-.695,41.981-.112,1.32.076,5.834.339,6.361,1.136.741,1.12-.268,4.912-1.4,4.912Zm-1.5-12c-.7-.45-.3-5,0-5H68.3c1.884,0,1.884,5,0,5-4.347,0-24.4.6-37.91.6C23.633,71.622,18.509,71.471,17.8,71.018Z" transform="translate(0.405 0.379)" stroke="rgba(0,0,0,0)" stroke-miterlimit="10" stroke-width="1"/>
</svg>
