<svg xmlns="http://www.w3.org/2000/svg" width="168.2" height="105.466" viewBox="0 0 168.2 105.466">
  <path id="F5" d="M104.965,103.986c-11.938-.437-23.857-.875-35.2-.332-7.457.113-3.718-17.785-4.715-17.785h-44.5c-5.052,0-.935-23.1-2.662-25.844-.44-.7-11.849-5.878-14.328-8.167C.45,48.989-1.033,46.326.8,42.122c2.072-4.75,16.286-9.139,17.083-10.412.95-1.523-.234-18.424.157-22.346.6-6.063,1.531-8.029,7.465-8.537C41.914-.574,59.567.088,77.143.75c13.925.525,27.8,1.049,40.975.549,13.774,4.721,7.658,20.385,8.93,31.57h19.5c1.707,0,5.836,4.685,6.288,6.71.95,4.243-.817,16.946.423,19.086.284.487,7.965,4.38,9.7,5.794,13.338,10.888-8.093,14.24-9.744,19.073-2.551,7.47,5.129,19.389-6.622,20.376-5.8.487-11.767.663-17.832.663C120.93,104.571,112.942,104.279,104.965,103.986ZM71.048,41.368v56.5h77v-19c0-.427,6.088-3.041,7.523-3.974,1.229-.8,5.991-3.14,5.469-4.513-1.031-2.7-11.273-5.98-12.5-8.507-2.005-4.13,1.794-21.559-2.993-23.007h-73.5A13.866,13.866,0,0,0,71.048,41.368Zm-47-8c0,2.3-17.873,9.875-18.07,11.076-.793,4.854,18.07,11.049,18.07,13.924v22.5h41v-39.5c0-1.937,4.258-8.5,6.5-8.5h49.5v-22.5a23.273,23.273,0,0,0-3.5-3.5h-93.5ZM87.306,75.116c-6.716-2.731-5.477-12.626,1.474-14.068,6.055-1.256,8.907,3.033,8.861,7.322-.04,3.773-2.321,7.546-6.637,7.546A9.853,9.853,0,0,1,87.306,75.116Zm35.478-14.064c10.193-2.083,12.624,12.791,3.526,14.65a9.439,9.439,0,0,1-1.894.2C115.851,75.9,114.282,62.79,122.784,61.052Zm-17,0c10.193-2.083,12.624,12.791,3.526,14.65a9.439,9.439,0,0,1-1.894.2C98.851,75.9,97.281,62.79,105.784,61.052Z" transform="translate(0.398 0.394)" stroke="rgba(0,0,0,0)" stroke-miterlimit="10" stroke-width="1"/>
</svg>
