<svg xmlns="http://www.w3.org/2000/svg" width="159.197" height="127.357" viewBox="0 0 159.197 127.357">
  <path id="Ic-robot" d="M0,63.679V95.518a7.951,7.951,0,0,0,7.96,7.96h7.96V55.719H7.96A7.951,7.951,0,0,0,0,63.679Zm115.418-39.8H87.558V7.96a7.96,7.96,0,1,0-15.92,0V23.88H43.779a19.894,19.894,0,0,0-19.9,19.9v67.659a15.934,15.934,0,0,0,15.92,15.92h79.6a15.934,15.934,0,0,0,15.92-15.92V43.779A19.894,19.894,0,0,0,115.418,23.88Zm-59.7,46.609c-5.5,0-9.95-1.312-9.95-6.809a9.95,9.95,0,1,1,19.9,0C65.669,69.176,61.216,70.488,55.719,70.488Zm38.664,31.978c-6.965,1.99-20.895,1.99-27.859,0s-7.671-12.133,0-7.96,21.335,3.237,27.859,0S101.348,100.476,94.383,102.466Zm9.095-31.978c-5.5,0-9.95-1.312-9.95-6.809a9.95,9.95,0,0,1,19.9,0C113.428,69.176,108.975,70.488,103.478,70.488Zm47.759-14.769h-7.96v47.759h7.96a7.951,7.951,0,0,0,7.96-7.96V63.679A7.951,7.951,0,0,0,151.237,55.719Z"/>
</svg>
