<svg xmlns="http://www.w3.org/2000/svg" width="131.415" height="122.791" viewBox="0 0 131.415 122.791">
  <path id="B6" d="M108.067,101.215s.564-.4,1.462-1.084c13.454-10.4,21.886-25.489,21.886-42.266,0-31.293-29.421-56.684-65.691-56.684S0,26.571,0,57.864,29.41,114.57,65.7,114.57a75.353,75.353,0,0,0,13.82-1.248l1.435-.246c9.215,5.979,22.664,10.9,34.431,10.9,3.641,0,5.355-2.99,3.023-6.045-3.548-4.353-8.438-11.324-10.338-16.712Zm-8.005-24.783C96.141,82.286,84,92.251,65.817,92.251h-.252c-18.223,0-30.351-10.026-34.245-15.819a6.226,6.226,0,0,1-1.495-3.143,2.683,2.683,0,0,1,2.448-2.88.293.293,0,0,1,.115-.016,3.443,3.443,0,0,1,1.8.608A50.031,50.031,0,0,0,65.691,82.258a48.213,48.213,0,0,0,31.54-11.274,2.524,2.524,0,0,1,1.714-.668,2.641,2.641,0,0,1,2.645,2.6,7.233,7.233,0,0,1-1.467,3.521h-.06Z" transform="translate(0 -1.18)"/>
</svg>
