<svg xmlns="http://www.w3.org/2000/svg" width="134.525" height="125.487" viewBox="0 0 134.525 125.487">
  <path id="C1" d="M16.441,1.219C47.656,2.378,81.947-1.619,112.814.784c13.279,1.034,18.744,6.561,19.778,19.778,1.256,16.057,1.464,45.719-.063,61.584-.845,8.79-4.112,17.324-13.874,18.357-15.727,1.663-59.448-1.038-68.9,2.886-7.021,4.35-19.327,18.861-25.687,21.192-10.341.388-6.452-14.432-8.924-21.731-1.288-3.8-13.379-1.742-14.532-16.234-1.891-23.807,1.3-50.389.371-74.485,2.344-7.192,8.547-9.8,15.459-10.912" transform="translate(0.42 0.398)" stroke="rgba(0,0,0,0)" stroke-miterlimit="10" stroke-width="1"/>
</svg>
